<svg xmlns="http://www.w3.org/2000/svg" viewBox="0 0 350.07 401.45"><defs><style>.cls-1{fill:#ec164f;}.cls-1,.cls-2,.cls-3,.cls-4,.cls-5,.cls-6,.cls-7{fill-rule:evenodd;}.cls-2{fill:#fefefe;}.cls-3{fill:#d5d5d7;}.cls-4{fill:#5f5f5f;}.cls-5{fill:#434443;}.cls-6{fill:#22201e;}.cls-7{fill:#babcbe;}.cls-8{fill:#415059;}</style></defs><g id="Layer_2" data-name="Layer 2"><g id="_4" data-name="4"><path class="cls-1" d="M298.5,144.92,195.85,74.39l72.86-33.13A125.05,125.05,0,0,1,298.5,144.92ZM200.06,246.55l8.39-79.22-114,51.83a125.18,125.18,0,0,0,105.63,27.39Zm15.66-4.22c3.81-1.32,7.62-2.78,11.32-4.47a124.51,124.51,0,0,0,67.7-77.24L229.08,115.5Zm-133-34.5,72.77-33L52.76,101.18a123.44,123.44,0,0,0-2.19,23.15v.16A123.74,123.74,0,0,0,61.7,175.81a125.94,125.94,0,0,0,21,32ZM134,6.46c-3.4,1.22-6.8,2.54-10.21,4.06a124.61,124.61,0,0,0-67,75l65.29,46.8Zm16.37-4L142,81.66,256,29.84A125.35,125.35,0,0,0,150.32,2.44Z"/><path class="cls-2" d="M129.25,55.21c-68.47,46-35.61,152.52,46.16,152.52S290.07,101.25,221.56,55.21a83.35,83.35,0,0,0-92.31,0Z"/><path class="cls-3" d="M140.51,72.13c-51.75,34.74-26.9,115.28,34.9,115.28s86.67-80.48,34.88-115.28a63,63,0,0,0-69.78,0Z"/><path class="cls-4" d="M147.56,82.71c-41.29,27.72-21.47,92,27.85,92s69.15-64.21,27.83-92a50.26,50.26,0,0,0-55.68,0Z"/><path class="cls-5" d="M150.85,87.62c-36.44,24.46-18.95,81.16,24.56,81.16s61-56.65,24.55-81.16a44.37,44.37,0,0,0-49.11,0Z"/><path class="cls-6" d="M161.77,104c-20.21,13.57-10.5,45,13.64,45s33.85-31.44,13.62-45a24.62,24.62,0,0,0-27.26,0Z"/><path class="cls-7" d="M159.89,116.22c-9.55-6.41-5-21.27,6.45-21.27s16,14.85,6.44,21.27a11.63,11.63,0,0,1-12.89,0Z"/><path class="cls-2" d="M186.41,148.76a5.71,5.71,0,1,1,6.33,0,5.71,5.71,0,0,1-6.33,0Z"/><path class="cls-8" d="M12.61,350.37c0,9-4.24,15.5-12.61,22.22L4,376a43.78,43.78,0,0,0,10.65-11.87A27.3,27.3,0,0,0,18,350.48V287.35H12.61Zm48-18.49c-24.8,1.65-30.28,8.05-30.28,16.74,0,8.15,5.28,12.3,12.72,12.3,6.5,0,12.39-2.48,17.88-7.55l.92,6.52h3.93V325.37q0-15.5-14-15.5c-5,0-11.56,1.44-19.51,4.44l.71,4.76c8.37-3,14.68-4.45,18.8-4.45,5.9,0,8.79,3.62,8.79,10.75ZM43.09,356.16c-4,0-7.55-2.18-7.55-7.85,0-3,1.76-5.58,5.37-7.54s10.13-3.41,19.74-4.14v10.85c-4.44,5.27-10.95,8.68-17.56,8.68Zm43.39-34.1c8.47-4.95,14.88-7.44,19.12-7.44,5.27,0,8.78,4,8.78,11.47v33.8h5.16v-33.8c0-11.57-6-16.22-13.94-16.22-4.75,0-11.16,2.37-19.12,7v-6.2l-5.15.41v48.78h5.15Zm85.35,15.3c1.24-8.69.21-15.4-3.2-20.25s-8.16-7.24-14.47-7.24c-13.12,0-21.17,7.85-21.17,25.52s8.88,25.53,21.8,25.53a45.22,45.22,0,0,0,15.39-3l-.72-4.74a41.43,41.43,0,0,1-14.26,2.88c-10.86,0-16.53-6.19-17-18.69Zm-17.67-22.74c8.27,0,13.44,6.52,13,18H138.25c.72-12,6-18,15.91-18Zm31.62-27.27v71.19a106.35,106.35,0,0,0,22.64,2.38c10.43,0,18.7-3.1,24.9-9.41s9.3-15.71,9.3-28.21q0-36-32.56-35.95ZM210,292.3q27.27,0,27.27,31c0,21.6-11.15,32.66-28.52,32.66a94.43,94.43,0,0,1-17.56-1.56V292.3Zm50.22,43.09c0-13.94,6.4-20.77,17-20.77,10.43,0,16.95,6.83,16.95,20.77,0,6.92-1.55,12.19-4.55,15.6s-7.12,5.17-12.4,5.17-9.51-1.64-12.5-5.06-4.54-8.68-4.54-15.71Zm-5.17,0c0,17.26,8.27,25.53,22.21,25.53,13.74,0,22.11-8.27,22.11-25.53,0-17.05-8.37-25.52-22.11-25.52-13.94,0-22.21,8.47-22.21,25.52Zm94.54,2c1.24-8.69.2-15.4-3.21-20.25s-8.16-7.24-14.46-7.24c-13.12,0-21.18,7.85-21.18,25.52s8.89,25.53,21.8,25.53a45.18,45.18,0,0,0,15.39-3l-.72-4.74a41.38,41.38,0,0,1-14.26,2.88c-10.85,0-16.53-6.19-17.05-18.69Zm-17.67-22.74c8.27,0,13.43,6.52,13,18H316c.72-12,6-18,15.91-18Z"/><path class="cls-8" d="M59.5,384.18a14,14,0,0,1,2.35-.39,24.85,24.85,0,0,1,2.62-.13c2.18,0,3.76.44,4.74,1.34a5,5,0,0,1,1.46,3.93v.78a8.8,8.8,0,0,1-.3,2.42,4.23,4.23,0,0,1-1,1.75,4.41,4.41,0,0,1-1.81,1.06,8.46,8.46,0,0,1-2.7.37l-1.28,0c-.44,0-.87-.07-1.3-.12v5.58a.37.37,0,0,1-.42.42H59a.37.37,0,0,1-.42-.42V385.58a1.88,1.88,0,0,1,.2-1,1.11,1.11,0,0,1,.72-.44Zm2.77,8.25c.28,0,.59.06.94.08l.95,0a2.9,2.9,0,0,0,2.27-.72,3,3,0,0,0,.64-2.06v-.55a2.42,2.42,0,0,0-2.91-2.76c-.32,0-.66,0-1,.05a4.75,4.75,0,0,0-.91.17ZM89,393.81H83.71v7a.33.33,0,0,1-.38.37h-3a.32.32,0,0,1-.37-.37V384.35c0-.26.12-.39.37-.39h3a.34.34,0,0,1,.38.39v6.47H89v-6.47c0-.26.12-.39.37-.39h3a.34.34,0,0,1,.38.39v16.44a.33.33,0,0,1-.38.37h-3a.32.32,0,0,1-.37-.37Zm20.52,7.64q-3.8,0-5.51-2.13c-1.15-1.42-1.72-3.53-1.72-6.29v-.94q0-4.15,1.72-6.29c1.14-1.42,3-2.14,5.51-2.14s4.35.72,5.5,2.14,1.72,3.52,1.72,6.29V393c0,2.76-.58,4.87-1.72,6.29s-3,2.13-5.5,2.13Zm3.41-9.26a8.64,8.64,0,0,0-.78-4.23,3.33,3.33,0,0,0-5.28,0,8.76,8.76,0,0,0-.78,4.23v.74a8.68,8.68,0,0,0,.78,4.22,3.33,3.33,0,0,0,5.28,0,8.57,8.57,0,0,0,.78-4.22ZM136.44,384q.45,0,.45.42v2.15q0,.42-.45.42h-4v13.79a.37.37,0,0,1-.42.42h-3a.37.37,0,0,1-.42-.42V387h-4q-.45,0-.45-.42v-2.15q0-.42.45-.42Zm15.14,17.49q-3.78,0-5.5-2.13c-1.14-1.42-1.73-3.53-1.73-6.29v-.94c0-2.77.59-4.87,1.73-6.29s3-2.14,5.5-2.14,4.36.72,5.5,2.14,1.72,3.52,1.72,6.29V393c0,2.76-.57,4.87-1.72,6.29s-3,2.13-5.5,2.13Zm3.41-9.26a8.92,8.92,0,0,0-.76-4.23,3.34,3.34,0,0,0-5.29,0,8.77,8.77,0,0,0-.77,4.23v.74a8.7,8.7,0,0,0,.77,4.22,3.34,3.34,0,0,0,5.29,0,8.84,8.84,0,0,0,.76-4.22Zm21.1-5.53a6.27,6.27,0,0,0-2.31.35,2.94,2.94,0,0,0-1.41,1,4.05,4.05,0,0,0-.71,1.73,14.6,14.6,0,0,0-.19,2.47v.63a12.51,12.51,0,0,0,.22,2.45,4.6,4.6,0,0,0,.69,1.74,2.84,2.84,0,0,0,1.27,1.05,4.88,4.88,0,0,0,2,.34,8.57,8.57,0,0,0,1.62-.15v-4.16h-2.14a.37.37,0,0,1-.41-.42v-2.17c0-.28.13-.42.41-.42h5.56q.39,0,.39.42v8.06a1.76,1.76,0,0,1-.19.89,1,1,0,0,1-.67.44,18,18,0,0,1-2.46.4c-.79.07-1.71.11-2.72.11a8.89,8.89,0,0,1-3.42-.58,5.68,5.68,0,0,1-2.28-1.71,7.22,7.22,0,0,1-1.26-2.66,15,15,0,0,1-.38-3.5v-.89a13.9,13.9,0,0,1,.42-3.66,6.52,6.52,0,0,1,1.33-2.64,5.64,5.64,0,0,1,2.39-1.6,10.17,10.17,0,0,1,3.56-.55,19.79,19.79,0,0,1,2.52.18,16.27,16.27,0,0,1,2.25.47.46.46,0,0,1,.29.17.36.36,0,0,1,.08.27v1.76a.31.31,0,0,1-.38.35c-.69-.07-1.34-.12-2-.15s-1.32,0-2.07,0Zm24.65,14.5a1.12,1.12,0,0,1-.57-.13.92.92,0,0,1-.34-.41l-2.7-5.65h-.22c-.31,0-.66,0-1.06,0s-.76,0-1.13-.06v5.85a.37.37,0,0,1-.42.42h-3a.37.37,0,0,1-.42-.42V385.58a1.88,1.88,0,0,1,.2-1,1.11,1.11,0,0,1,.72-.44,14,14,0,0,1,2.4-.39c.9-.09,1.8-.13,2.68-.13a9.77,9.77,0,0,1,2.86.36,4.72,4.72,0,0,1,1.9,1.05,3.75,3.75,0,0,1,1,1.67A6.72,6.72,0,0,1,203,389v.65a6.56,6.56,0,0,1-.57,2.87,3.9,3.9,0,0,1-1.91,1.82l3.32,6.38c.08.17.09.28,0,.35a.39.39,0,0,1-.25.1ZM196.62,392a3.2,3.2,0,0,0,2.2-.57,2.36,2.36,0,0,0,.6-1.82V389a2.39,2.39,0,0,0-.6-1.82,3.25,3.25,0,0,0-2.2-.56,7.84,7.84,0,0,0-1,0,5,5,0,0,0-.92.17v5c.32,0,.66.05,1,.06ZM221,384a.6.6,0,0,1,.65.5l4.45,16.2a.48.48,0,0,1,0,.34.3.3,0,0,1-.29.16h-3c-.28,0-.44-.12-.48-.35l-.74-3h-5.35l-.75,3c0,.23-.2.35-.5.35h-3a.29.29,0,0,1-.29-.16.43.43,0,0,1,0-.34l4.45-16.2a.6.6,0,0,1,.66-.5ZM217,394.85h3.89l-2-7.9Zm18.82-10.67a13.91,13.91,0,0,1,2.34-.39,25.26,25.26,0,0,1,2.62-.13c2.2,0,3.78.44,4.76,1.34a5,5,0,0,1,1.45,3.93v.78a8.82,8.82,0,0,1-.29,2.42,4.14,4.14,0,0,1-1,1.75,4.41,4.41,0,0,1-1.81,1.06,8.46,8.46,0,0,1-2.7.37l-1.27,0c-.44,0-.89-.07-1.31-.12v5.58a.37.37,0,0,1-.41.42H235.3a.37.37,0,0,1-.42-.42V385.58a1.87,1.87,0,0,1,.21-1,1.06,1.06,0,0,1,.71-.44Zm2.77,8.25c.28,0,.6.06,1,.08l.94,0a3,3,0,0,0,2.29-.72,3.14,3.14,0,0,0,.62-2.06v-.55a3.08,3.08,0,0,0-.62-2.07,3,3,0,0,0-2.29-.69c-.32,0-.64,0-1,.05a5.06,5.06,0,0,0-.91.17Zm26.76,1.38H260v7c0,.25-.12.37-.38.37h-3.06a.32.32,0,0,1-.37-.37V384.35c0-.26.12-.39.37-.39h3.06c.26,0,.38.13.38.39v6.47h5.31v-6.47c0-.26.12-.39.37-.39h3.05a.35.35,0,0,1,.39.39v16.44c0,.25-.14.37-.39.37H265.7a.32.32,0,0,1-.37-.37Zm18.1,7.35a.37.37,0,0,1-.41-.42v-5.45l-5.27-10.79a.39.39,0,0,1,0-.35.33.33,0,0,1,.32-.19h2.84a.65.65,0,0,1,.65.44l3.39,7.29,3.39-7.29A.66.66,0,0,1,289,384h2.85a.3.3,0,0,1,.3.19.34.34,0,0,1,0,.35l-5.25,10.79v5.45a.38.38,0,0,1-.43.42Z"/></g></g></svg>